<?xml version="1.0" standalone="no"?>
<!DOCTYPE svg PUBLIC "-//W3C//DTD SVG 20010904//EN"
 "http://www.w3.org/TR/2001/REC-SVG-20010904/DTD/svg10.dtd">
<svg version="1.0" xmlns="http://www.w3.org/2000/svg"
 width="800.000000pt" height="516.000000pt" viewBox="0 0 800.000000 516.000000"
 preserveAspectRatio="xMidYMid meet">

<g transform="translate(0.000000,516.000000) scale(0.100000,-0.100000)"
fill="#000000" stroke="none">
<path d="M1413 1891 c-114 -39 -173 -117 -180 -235 -4 -60 -1 -78 19 -116 32
-63 93 -105 196 -136 191 -57 213 -66 228 -90 49 -74 -58 -159 -170 -134 -50
11 -74 34 -87 84 -5 23 -12 49 -15 59 -5 14 -17 17 -79 17 -41 0 -86 -5 -101
-10 -25 -10 -26 -13 -20 -57 16 -118 60 -185 148 -224 72 -31 239 -39 323 -14
109 31 183 97 210 187 26 88 14 155 -37 214 -42 48 -105 78 -240 114 -128 35
-155 49 -164 87 -16 63 34 115 111 115 60 0 97 -26 109 -76 l10 -37 95 3 96 3
-1 46 c-3 91 -69 171 -166 203 -69 22 -217 21 -285 -3z"/>
<path d="M4498 1886 c-158 -65 -241 -213 -241 -431 0 -111 15 -181 56 -258 36
-69 81 -111 157 -146 79 -36 230 -42 312 -11 100 37 172 132 185 241 l6 49
-102 0 c-73 0 -103 -4 -105 -12 -3 -7 -7 -25 -10 -40 -9 -39 -53 -86 -91 -97
-70 -19 -142 18 -172 88 -37 87 -33 299 8 386 35 74 80 103 154 97 51 -5 95
-59 95 -118 l0 -25 103 3 102 3 -1 52 c-3 95 -88 198 -188 228 -78 23 -200 19
-268 -9z"/>
<path d="M2313 1873 c-42 -105 -290 -820 -286 -825 2 -5 46 -8 96 -8 l92 0 31
88 31 87 153 0 153 0 31 -87 31 -88 97 0 c53 0 99 3 101 8 2 4 -62 194 -143
422 l-147 415 -117 3 c-104 2 -117 1 -123 -15z m171 -360 c24 -72 42 -134 38
-137 -3 -3 -48 -6 -100 -6 -71 0 -93 3 -89 13 2 6 24 72 48 144 24 73 47 129
51 125 5 -5 28 -67 52 -139z"/>
<path d="M3015 1878 c-3 -7 -4 -198 -3 -423 l3 -410 100 0 100 0 5 187 5 186
128 -189 128 -189 121 0 c110 0 120 2 116 18 -3 9 -73 112 -156 229 -84 116
-152 216 -152 222 0 6 63 88 140 182 77 95 140 178 140 185 0 11 -24 14 -112
14 l-113 -1 -120 -157 -120 -158 -5 155 -5 156 -98 3 c-72 2 -99 -1 -102 -10z"/>
<path d="M3865 1877 c-3 -6 -4 -197 -3 -422 l3 -410 103 -3 102 -3 0 426 0
425 -100 0 c-71 0 -102 -4 -105 -13z"/>
<path d="M5145 1878 c-3 -7 -4 -198 -3 -423 l3 -410 100 0 100 0 3 178 2 177
140 0 140 0 2 -177 3 -178 100 0 100 0 0 420 0 420 -100 0 -100 0 -3 -167 -2
-168 -140 0 -140 0 -2 168 -3 167 -98 3 c-72 2 -99 -1 -102 -10z"/>
<path d="M6283 1873 c-42 -105 -290 -820 -286 -825 2 -5 46 -8 96 -8 l92 0 31
88 31 87 153 0 153 0 31 -87 31 -88 97 0 c53 0 99 3 101 8 2 4 -62 194 -143
422 l-147 415 -117 3 c-104 2 -117 1 -123 -15z m171 -360 c24 -72 42 -134 38
-137 -3 -3 -48 -6 -100 -6 -71 0 -93 3 -89 13 2 6 24 72 48 144 24 73 47 129
51 125 5 -5 28 -67 52 -139z"/>
<path d="M5533 936 c-42 -19 -66 -68 -67 -136 -1 -105 38 -150 131 -150 91 0
93 2 93 86 l0 74 -55 0 c-52 0 -55 -1 -55 -25 0 -20 5 -25 25 -25 21 0 25 -5
25 -30 0 -26 -3 -30 -29 -30 -16 0 -39 8 -52 19 -19 16 -23 28 -23 76 0 50 3
60 27 81 34 29 41 30 67 4 23 -23 70 -27 70 -6 0 8 -10 27 -23 41 -27 32 -88
42 -134 21z"/>
<path d="M7105 917 c-26 -26 -34 -44 -40 -88 -14 -111 28 -179 110 -179 47 0
79 26 90 73 7 25 5 27 -22 27 -23 0 -31 -6 -40 -30 -7 -19 -18 -30 -31 -30
-35 0 -47 28 -47 106 0 64 3 77 23 96 l23 23 23 -27 c14 -18 31 -28 49 -28 27
0 27 1 14 33 -26 64 -100 76 -152 24z"/>
<path d="M2920 916 c0 -21 5 -25 38 -28 l37 -3 3 -112 c3 -112 3 -113 27 -113
24 0 24 1 27 113 l3 112 38 3 c32 3 37 7 37 28 0 24 0 24 -105 24 -105 0 -105
0 -105 -24z"/>
<path d="M3350 801 l0 -141 30 0 c30 0 30 1 30 55 0 51 2 55 23 55 31 0 47
-18 47 -51 0 -44 10 -59 40 -59 l27 0 -9 57 c-5 31 -13 62 -18 68 -5 6 -3 18
6 29 18 25 18 77 0 101 -12 16 -29 20 -95 23 l-81 4 0 -141z m120 85 c6 -8 10
-25 8 -38 -2 -18 -10 -24 -35 -26 -32 -3 -33 -2 -33 37 0 36 3 41 24 41 13 0
29 -7 36 -14z"/>
<path d="M3855 928 c-3 -7 -22 -70 -44 -140 l-39 -128 28 0 c22 0 30 6 39 30
9 27 14 30 51 30 37 0 42 -3 51 -30 9 -24 17 -30 41 -30 20 0 28 4 25 13 -3 6
-22 69 -43 140 l-38 127 -33 0 c-19 0 -36 -6 -38 -12z m53 -118 c10 -40 10
-40 -18 -40 -28 0 -28 0 -18 40 6 22 14 40 18 40 4 0 12 -18 18 -40z"/>
<path d="M4240 800 l0 -140 68 0 c46 0 75 5 91 16 48 34 65 130 36 200 -18 43
-63 64 -140 64 l-55 0 0 -140z m125 65 c28 -27 33 -80 14 -118 -15 -28 -28
-37 -56 -37 -22 0 -23 3 -23 90 0 84 1 90 20 90 12 0 32 -11 45 -25z"/>
<path d="M4700 800 l0 -140 30 0 30 0 0 140 0 140 -30 0 -30 0 0 -140z"/>
<path d="M5010 800 l0 -140 25 0 25 0 1 103 0 102 41 -102 41 -103 39 0 38 0
0 140 0 140 -25 0 c-24 0 -24 -1 -27 -97 l-3 -98 -40 97 -40 98 -37 0 -38 0 0
-140z"/>
<path d="M6250 801 l0 -141 30 0 c30 0 30 1 30 55 l0 55 40 0 c53 0 80 27 80
79 0 64 -25 84 -109 89 l-71 4 0 -141z m113 68 c15 -24 1 -49 -28 -49 -22 0
-25 4 -25 36 0 31 3 35 21 32 12 -2 27 -10 32 -19z"/>
<path d="M6670 800 l0 -140 80 0 c79 0 80 0 80 25 0 23 -3 25 -50 25 l-50 0 0
115 0 115 -30 0 -30 0 0 -140z"/>
<path d="M7510 685 c0 -18 5 -25 20 -25 15 0 20 7 20 25 0 18 -5 25 -20 25
-15 0 -20 -7 -20 -25z"/>
</g>
</svg>
